<?xml version="1.0" standalone="no"?>
<!DOCTYPE svg PUBLIC "-//W3C//DTD SVG 20010904//EN"
 "http://www.w3.org/TR/2001/REC-SVG-20010904/DTD/svg10.dtd">
<svg version="1.0" xmlns="http://www.w3.org/2000/svg"
 width="240.000000pt" height="240.000000pt" viewBox="0 0 240.000000 240.000000"
 preserveAspectRatio="xMidYMid meet">
<metadata>
Created by potrace 1.11, written by Peter Selinger 2001-2013
</metadata>
<g transform="translate(0.000000,240.000000) scale(0.100000,-0.100000)"
fill="#000000" stroke="none">
<path d="M54 2222 c-14 -21 -18 -47 -18 -117 1 -49 4 -112 8 -140 3 -27 8 -63
10 -80 4 -25 18 -92 41 -199 32 -143 97 -302 151 -366 l28 -33 -42 -78 c-23
-43 -42 -80 -42 -82 0 -2 24 -3 53 -2 86 1 89 -5 32 -69 -23 -27 -119 -181
-121 -195 0 -3 -8 -22 -17 -42 -20 -45 -41 -128 -34 -135 2 -3 21 2 41 10 20
8 36 12 36 9 0 -3 7 0 15 7 8 7 15 10 15 7 0 -3 16 -1 36 3 35 8 36 8 30 -18
-18 -74 -27 -125 -24 -142 3 -18 5 -18 33 -5 76 37 151 53 230 51 107 -3 155
-27 179 -90 23 -59 83 -151 132 -201 171 -175 414 -213 621 -97 55 30 173 139
173 158 0 8 5 14 10 14 6 0 10 7 10 15 0 8 4 15 9 15 4 0 24 36 44 80 34 75
40 82 84 102 61 27 160 21 264 -17 41 -15 81 -29 90 -31 13 -5 15 3 13 43 -1
26 -3 48 -4 48 -1 0 -3 7 -5 15 -1 8 -6 28 -10 44 -7 26 -6 28 15 21 12 -4 28
-8 34 -10 37 -7 74 -20 98 -31 27 -14 27 -14 22 18 -7 53 -9 62 -17 76 -5 6
-6 12 -2 12 3 0 0 10 -7 23 -7 12 -12 24 -13 27 -1 14 -101 184 -122 206 -13
14 -23 28 -23 31 0 3 -7 11 -17 18 -27 20 -8 30 56 29 43 -1 61 3 61 12 0 7
-4 16 -10 19 -5 3 -20 28 -32 55 -13 28 -26 50 -30 50 -16 0 -7 41 12 57 11
10 20 23 20 30 0 7 4 13 8 13 7 0 38 62 73 145 18 43 59 200 79 302 50 258 44
431 -13 439 -26 4 -105 -21 -184 -58 -38 -17 -70 -32 -73 -33 -38 -9 -283
-154 -368 -217 -74 -54 -77 -57 -117 -96 -32 -32 -37 -33 -82 -28 -26 4 -57 9
-68 13 -30 9 -347 10 -418 2 -34 -5 -82 -11 -106 -14 -42 -5 -47 -3 -90 38
-88 84 -247 188 -451 293 -30 15 -57 29 -60 29 -3 1 -16 6 -30 12 -79 34 -130
52 -162 57 -31 5 -38 2 -54 -22z"/>
</g>
</svg>
